<?xml version="1.0"?>
<svg xmlns="http://www.w3.org/2000/svg" width="512" height="512" viewBox="0 0 128 128"><g><path d="M88.383,111.1a1.737,1.737,0,0,0-.053.169,1.478,1.478,0,0,0-.046.157,1.755,1.755,0,0,0,0,.685,1.4,1.4,0,0,0,.046.156,1.673,1.673,0,0,0,.053.17,1.745,1.745,0,0,0,.095.182c.022.039.039.081.065.119a1.8,1.8,0,0,0,.221.27l3.459,3.459a1.75,1.75,0,1,0,2.474-2.475l-.473-.473h3.93a1.75,1.75,0,0,0,0-3.5h-3.93l.473-.474a1.75,1.75,0,0,0-2.474-2.475l-3.459,3.459a1.8,1.8,0,0,0-.221.27c-.025.038-.042.079-.064.118A1.593,1.593,0,0,0,88.383,111.1Z"/><path d="M123.25,33.92V6.5a1.749,1.749,0,0,0-1.75-1.75H94.08A1.749,1.749,0,0,0,92.33,6.5V22.44H84.35l-.02,0H6.5a1.75,1.75,0,0,0-1.75,1.75V121.5a1.749,1.749,0,0,0,1.75,1.75h97.308a1.75,1.75,0,0,0,1.75-1.75V82.6l0-.019V65.287l17.177-17.178a1.748,1.748,0,0,0,0-2.474l-9.964-9.965H121.5A1.749,1.749,0,0,0,123.25,33.92ZM92.33,25.94v7.98a1.738,1.738,0,0,0,.154.711L86.1,41.016V25.94Zm2.412,35.43H86.1V52.728ZM86.1,84.33h15.962v15.958H86.1Zm15.964-3.5H86.1V64.87H98.242l2.63,2.63a1.738,1.738,0,0,0,1.188.508ZM82.6,63.12V82.538c0,.014,0,.026,0,.039v17.711H27.712V45.4h54l-.231.231a1.75,1.75,0,0,0,0,2.474l1.12,1.12ZM8.25,64.865H24.212V80.827H8.25Zm15.962-3.5H8.25V45.4H24.212ZM8.25,84.327H24.212v15.961H8.25ZM82.6,41.9H66.635V25.942H82.6Zm-19.461,0H47.173V25.942H63.135Zm-19.462,0H27.712V25.942H43.673ZM8.25,25.942H24.212V41.9H8.25Zm0,77.846H24.212V119.75H8.25Zm19.462,0H43.673V119.75H27.712Zm19.461,0H63.135V119.75H47.173Zm19.462,0H82.6V119.75H66.635Zm35.423,15.962H86.1V103.788h15.962Zm.534-56.444-.036.036-.447.446L100.224,61.9l-.037-.037L85.608,47.287l-.046-.045-.37-.37L87.17,44.9l.015-.015,9.72-9.72,0,0,5.2-5.2,16.916,16.917Zm-.86-38.814a1.271,1.271,0,0,1,.9-.369,1.251,1.251,0,0,1,.895,2.127c-.03.03-.067.045-.1.072l-.078-.079a1.734,1.734,0,0,0-1.878-.388A1.256,1.256,0,0,1,101.732,24.492ZM119.75,32.17H109.273L105.907,28.8c.028-.026.058-.045.085-.072a4.755,4.755,0,1,0-7.125-.483L95.83,31.285V8.25h23.92Z"/><path d="M112.951,19.8a4.749,4.749,0,0,0,3.361-8.108h0a4.751,4.751,0,1,0-3.36,8.109Zm-.884-5.632a1.251,1.251,0,1,1,0,1.768A1.247,1.247,0,0,1,112.067,14.165Z"/><path d="M97.359,46.872a4.75,4.75,0,1,0,4.75-4.75A4.756,4.756,0,0,0,97.359,46.872Zm6,0a1.25,1.25,0,1,1-1.25-1.25A1.25,1.25,0,0,1,103.359,46.872Z"/><path d="M73.625,52.747H55.549A1.749,1.749,0,0,0,53.8,54.5V65.461a1.749,1.749,0,0,0,1.75,1.75H73.625a1.749,1.749,0,0,0,1.75-1.75V54.5A1.749,1.749,0,0,0,73.625,52.747Zm-1.75,10.964H57.3V56.247H71.875Z"/><path d="M54.759,78.481H36.683a1.75,1.75,0,0,0-1.75,1.75V91.2a1.749,1.749,0,0,0,1.75,1.75H54.759a1.749,1.749,0,0,0,1.75-1.75V80.231A1.75,1.75,0,0,0,54.759,78.481Zm-1.75,10.964H38.433V81.981H53.009Z"/></g></svg>
