<?xml version="1.0"?>
<svg xmlns="http://www.w3.org/2000/svg" viewBox="0 0 64 64" width="512" height="512"><g id="Outline"><g><path d="M5.3,10.706A1,1,0,0,0,6.7,9.273L5.149,7.764,7.29,7.453a1,1,0,0,0,.753-.547L9,4.966l.957,1.94a1,1,0,0,0,.753.547l2.141.311L11.3,9.273a1,1,0,0,0-.288.886l.366,2.132L9.465,11.284a1,1,0,0,0-.93,0l-3.708,1.95a1,1,0,0,0,.466,1.885A.981.981,0,0,0,5.757,15L9,13.3,12.243,15a1,1,0,0,0,1.451-1.054l-.62-3.611L15.7,7.782a1,1,0,0,0-.554-1.706l-3.626-.527L9.9,2.264a1.042,1.042,0,0,0-1.794,0L6.482,5.549l-3.626.527A1,1,0,0,0,2.3,7.782Z"/><path d="M61.144,34.076l-3.626-.527L55.9,30.264a1.042,1.042,0,0,0-1.794,0l-1.621,3.285-3.626.527a1,1,0,0,0-.554,1.706l2.624,2.557-.62,3.611A1,1,0,0,0,51.757,43L55,41.3,58.243,43a1,1,0,0,0,1.451-1.054l-.62-3.611L61.7,35.782a1,1,0,0,0-.554-1.706Zm-3.842,3.2a1,1,0,0,0-.288.886l.366,2.132-1.915-1.007a1,1,0,0,0-.93,0L52.62,40.291l.366-2.132a1,1,0,0,0-.288-.886l-1.549-1.509,2.141-.311a1,1,0,0,0,.753-.547L55,32.966l.957,1.94a1,1,0,0,0,.753.547l2.141.311Z"/><path d="M13.1,17.558l-1.312,2.659-2.935.426A1,1,0,0,0,8.3,22.349l2.123,2.07-.5,2.923A1,1,0,0,0,11.375,28.4L14,27.016l2.625,1.38a1,1,0,0,0,1.451-1.054l-.5-2.923,2.123-2.07a1,1,0,0,0-.554-1.706l-2.935-.426L14.9,17.558A1.041,1.041,0,0,0,13.1,17.558Zm3.748,4.773L15.8,23.354a1,1,0,0,0-.288.885l.248,1.444L14.465,25a1.005,1.005,0,0,0-.93,0l-1.3.683.248-1.444a1,1,0,0,0-.288-.885l-1.049-1.023,1.45-.21a1,1,0,0,0,.753-.548L14,20.26l.648,1.313a1,1,0,0,0,.753.548Z"/><path d="M42,40H40.975A9.982,9.982,0,0,0,45,32v-.031A4.952,4.952,0,0,0,46,29V27a1,1,0,0,0-1-1v-.315l3.5-1.84,7.26,3.817a1.012,1.012,0,0,0,.466.114,1,1,0,0,0,.985-1.169l-1.386-8.084L61.7,12.8a1,1,0,0,0-.554-1.706L53.027,9.913,49.4,2.558a1.041,1.041,0,0,0-1.793,0l-3.63,7.355-3.457.5A1,1,0,0,0,40.8,12.4l3.977-.579a1,1,0,0,0,.753-.547L48.5,5.259l2.966,6.01a1,1,0,0,0,.753.547l6.632.964-4.8,4.678a1,1,0,0,0-.288.885L54.9,24.948,48.965,21.83a.994.994,0,0,0-.93,0L45,23.425V23A11.013,11.013,0,0,0,34,12a1,1,0,0,0,0,2,9.013,9.013,0,0,1,8.945,8H36a5.006,5.006,0,0,1-5-5,1,1,0,0,0-2,0,6.977,6.977,0,0,0,2.11,5H31a5.006,5.006,0,0,1-5-5,1,1,0,0,0-2,0,6.974,6.974,0,0,0,2.009,4.9A5.008,5.008,0,0,1,22,17V14h8a1,1,0,0,0,0-2H21a1,1,0,0,0-1,1v4a7.008,7.008,0,0,0,7,7H43v2H25a1,1,0,0,0-1,1v2a4.952,4.952,0,0,0,1,2.969V32a10,10,0,0,0,5,8.647V42a5,5,0,0,0,10,0h2a7.008,7.008,0,0,1,7,7v3H44a1,1,0,0,0-1,1v8a1,1,0,0,0,2,0V54h4v7a1,1,0,0,0,2,0V49A9.011,9.011,0,0,0,42,40Zm1.308-9.106L40.414,28H44v1A2.972,2.972,0,0,1,43.308,30.894ZM38,28.414l3.532,3.532A2.968,2.968,0,0,1,38,29ZM26,29v-.586l3.532,3.532A2.968,2.968,0,0,1,26,29Zm5.308,1.894L28.414,28H32v1A2.972,2.972,0,0,1,31.308,30.894Zm-4.137,2.748A4.95,4.95,0,0,0,29,34a5.006,5.006,0,0,0,5-5V28h2v1a5.006,5.006,0,0,0,5,5,4.95,4.95,0,0,0,1.829-.358,8,8,0,0,1-15.658,0ZM35,45a3,3,0,0,1-3-3v-.461a9.992,9.992,0,0,0,6,0V42A3,3,0,0,1,35,45Z"/><path d="M38.555,36.832a1,1,0,1,0-1.11-1.664,4.4,4.4,0,0,1-4.89,0,1,1,0,0,0-1.11,1.664,6.391,6.391,0,0,0,7.11,0Z"/><path d="M26,52H21V49a7.008,7.008,0,0,1,5.171-6.75,1,1,0,1,0-.522-1.93A9.01,9.01,0,0,0,19,49v5.236l-1.709-2.564a5.978,5.978,0,0,0-1.882-4.04A2.989,2.989,0,0,0,17,45V39a3,3,0,0,0-2-2.816V32a1,1,0,0,0-1-1H10a1,1,0,0,0-1,1v4.184A3,3,0,0,0,7,39v5.449l-.644-.386A2.876,2.876,0,0,0,3.205,48.87l4.478,3.2a4.956,4.956,0,0,0,1.984.838l4.767,8.58a1,1,0,0,0,1.748-.972L12.007,53h3.765l5.7,8.555a1,1,0,0,0,1.664-1.11L21,57.236V54h4v7a1,1,0,0,0,2,0V53A1,1,0,0,0,26,52ZM11,33h2v3H11ZM9,39a1,1,0,0,1,1-1h4a1,1,0,0,1,1,1v6a1,1,0,0,1-1,1H9.584L9,45.649Zm1.589,12a2.976,2.976,0,0,1-1.743-.559l-4.479-3.2a.876.876,0,0,1,.96-1.464l3.466,2.079A1,1,0,0,0,9.308,48h2a4.007,4.007,0,0,1,3.873,3Z"/><path d="M40.144,50.643l-2.935-.426L35.9,47.558a1.041,1.041,0,0,0-1.794,0l-1.312,2.659-2.935.426a1,1,0,0,0-.554,1.706l2.123,2.07-.5,2.923A1,1,0,0,0,32.375,58.4L35,57.016l2.625,1.38a1,1,0,0,0,1.451-1.054l-.5-2.923,2.123-2.07a1,1,0,0,0-.554-1.706ZM36.8,53.354a1,1,0,0,0-.288.885l.248,1.444L35.465,55a1.005,1.005,0,0,0-.93,0l-1.3.683.248-1.444a1,1,0,0,0-.288-.885l-1.049-1.023,1.45-.21a1,1,0,0,0,.753-.548L35,50.26l.648,1.313a1,1,0,0,0,.753.548l1.45.21Z"/></g></g></svg>
