<svg id="Capa_1" enable-background="new 0 0 512 512" height="512" viewBox="0 0 512 512" width="512" xmlns="http://www.w3.org/2000/svg"><g><path d="m417.59 193.241c-5.858 5.858-5.858 15.355 0 21.213 1.646 1.647 4.41 5.208 4.41 10.546s-2.764 8.898-4.41 10.546c-5.858 5.858-5.858 15.355 0 21.213 5.857 5.858 15.355 5.859 21.213 0 4.928-4.929 13.197-15.609 13.197-31.759s-8.269-26.83-13.197-31.759c-5.858-5.858-15.356-5.858-21.213 0z"/><path d="m481.218 150.783c-5.857-5.858-15.355-5.857-21.213 0-5.858 5.858-5.858 15.355 0 21.213 14.183 14.184 21.995 33.008 21.995 53.004s-7.812 38.82-21.995 53.004c-5.858 5.858-5.858 15.355 0 21.213s15.355 5.857 21.213 0c19.85-19.85 30.782-46.208 30.782-74.217s-10.932-54.367-30.782-74.217z"/><path d="m94.41 193.241c-5.857-5.858-15.355-5.858-21.213 0-4.928 4.929-13.197 15.609-13.197 31.759s8.269 26.83 13.197 31.759c5.857 5.858 15.355 5.859 21.213 0 5.858-5.858 5.858-15.355 0-21.213-1.647-1.648-4.41-5.208-4.41-10.546s2.763-8.898 4.41-10.546c5.858-5.858 5.858-15.355 0-21.213z"/><path d="m51.996 150.783c-5.857-5.858-15.355-5.858-21.213 0-19.851 19.85-30.783 46.208-30.783 74.217s10.932 54.367 30.783 74.217c5.857 5.858 15.355 5.859 21.213 0 5.858-5.858 5.858-15.355 0-21.213-14.184-14.184-21.996-33.008-21.996-53.004s7.812-38.82 21.996-53.004c5.858-5.858 5.858-15.355 0-21.213z"/><path d="m346 0h-180c-24.813 0-45 20.187-45 45v452c0 8.284 6.716 15 15 15s15-6.716 15-15v-15h210v15c0 8.284 6.716 15 15 15s15-6.716 15-15c0-15.841 0-432.978 0-452 0-24.813-20.187-45-45-45zm-195 45c0-8.271 6.729-15 15-15h180c8.271 0 15 6.729 15 15v407h-210z"/><path d="m256 270c-41.355 0-75 33.645-75 75s33.645 75 75 75 75-33.645 75-75-33.645-75-75-75zm0 120c-24.813 0-45-20.187-45-45s20.187-45 45-45 45 20.187 45 45-20.187 45-45 45z"/><circle cx="256" cy="345" r="15"/><circle cx="256" cy="165" r="15"/><circle cx="316" cy="75" r="15"/><circle cx="196" cy="75" r="15"/><path d="m256 90c-41.355 0-75 33.645-75 75s33.645 75 75 75 75-33.645 75-75-33.645-75-75-75zm0 120c-24.813 0-45-20.187-45-45s20.187-45 45-45 45 20.187 45 45-20.187 45-45 45z"/></g></svg>