<svg id="Capa_1" enable-background="new 0 0 511.936 511.936" height="512" viewBox="0 0 511.936 511.936" width="512" xmlns="http://www.w3.org/2000/svg"><path d="m63.64 511.93 110.975-110.966 21.214 21.214 43.18-43.18c40.737 30.567 99.472 27.807 137.133-9.853l21.213-21.213c5.864-5.862 15.349-5.863 21.214 0l23.062 23.06 16.217-210.832-145.346 145.345c-5.849 5.849-15.365 5.849-21.214 0l-10.606-10.607 159.1-159.099c5.863-5.862 15.35-5.863 21.213 0l19.818 19.819 31.123-155.612-155.613 31.122 19.818 19.819c5.848 5.849 5.848 15.365 0 21.213l-159.099 159.099-10.606-10.607c-5.849-5.849-5.849-15.365 0-21.213l145.345-145.345-210.832 16.218 23.06 23.061c5.849 5.849 5.849 15.365 0 21.213l-21.213 21.214c-37.339 37.339-40.616 96.029-9.846 137.125l-43.188 43.187 21.213 21.213-110.975 110.966zm100.369-354.917 21.214-21.213c10.796-10.797 14.949-25.761 12.458-39.763l75.542-5.811-88 88c-17.545 17.546-17.545 46.094 0 63.64l31.82 31.82 180.311-180.313c11.438-11.438 15.42-27.552 11.944-42.246l64.395-12.879-12.874 64.366c-14.652-3.461-30.719.44-42.251 11.972l-180.312 180.312 31.819 31.82c17.546 17.546 46.096 17.544 63.64 0l88.001-88-5.809 75.515c-14.128-2.502-28.977 1.696-39.766 12.486l-21.213 21.213c-29.259 29.259-76.806 29.26-106.066 0l-84.853-84.853c-29.242-29.243-29.242-76.824 0-106.066zm-10.606 137.886 63.64 63.64-21.214 21.213-63.639-63.64zm-21.214 63.639 21.214 21.213-89.761 89.754-21.213-21.213z"/></svg>