<svg id="Capa_1" enable-background="new 0 0 512 512" height="512" viewBox="0 0 512 512" width="512" xmlns="http://www.w3.org/2000/svg"><path d="m511.999 105.113-106.114-105.113-86.042 86.042h-109.47l-60.004 60h-56.992v120.2h-93.376v245.758h382.672v-245.758h-92.744v-30.2h92.045zm-106.013-62.787 63.592 62.993-58.719 59.308-63.586-63.587zm-282.609 133.716h81.466c-1.665 4.695-2.58 9.742-2.58 15 0 12.501 5.128 23.825 13.387 31.988l-35.107 35.107-23.581-23.581-21.213 21.213 44.794 44.794 64.575-64.575c.711.034 1.426.054 2.145.054h12.666v90.2h-136.552zm229.296 305.958h-322.672v-65.758h322.672zm0-185.758v90h-322.672v-90h63.376v30h-33.458v30h262.707v-30h-32.697v-30zm16.875-90.2h-122.285c-8.271 0-15-6.729-15-15s6.729-15 15-15h58.738v-30h-113.204l30.003-30h97.047l69.852 69.851z"/></svg>