<?xml version="1.0" encoding="iso-8859-1"?>
<!-- Generator: Adobe Illustrator 19.0.0, SVG Export Plug-In . SVG Version: 6.00 Build 0)  -->
<svg version="1.1" id="Capa_1" xmlns="http://www.w3.org/2000/svg" xmlns:xlink="http://www.w3.org/1999/xlink" x="0px" y="0px"
	 viewBox="0 0 512 512" style="enable-background:new 0 0 512 512;" xml:space="preserve">
<g>
	<g>
		<path d="M268.325,364.635c-5.52,0-10,4.48-10,10c0,5.52,4.48,10,10,10c5.52,0,10-4.48,10-10
			C278.325,369.115,273.845,364.635,268.325,364.635z"/>
	</g>
</g>
<g>
	<g>
		<path d="M168.322,164.628c-5.52,0-10,4.48-10,10c0,5.52,4.48,10,10,10c5.52,0,10-4.48,10-10
			C178.322,169.109,173.842,164.628,168.322,164.628z"/>
	</g>
</g>
<g>
	<g>
		<path d="M452.152,301.961c-3.74-1.545-8.044-0.684-10.902,2.183L340.735,404.996h-22.409v-5.938l118.215-118.215
			c3.903-3.904,3.904-10.238,0-14.143l-28.281-28.281c-3.905-3.905-10.237-3.904-14.142,0l-96.037,96.037
			c-8.539-6.324-18.953-9.823-29.755-9.823c-11.436,0-22.521,3.977-31.333,11.064c-35.324-16.089-58.67-51.933-58.67-91.067
			c0-7.266,0.792-14.487,2.338-21.547c0.518-0.131,1.033-0.271,1.545-0.419l52.848,52.839c1.005,1.005,2.423,1.919,3.908,2.415
			l60.002,20.001c3.6,1.199,7.559,0.258,10.233-2.416l40.001-40.001c2.678-2.679,3.613-6.64,2.416-10.233l-20.001-60.002
			c-0.493-1.48-1.387-2.881-2.416-3.909L209.534,61.693c-9.216-9.216-22.987-11.164-34.135-5.854l-19.914-19.914
			c2.488-9.659-0.162-20.151-7.517-27.518c-11.227-11.211-29.484-11.209-40.699,0.004L62.112,53.569
			c-11.259,11.245-11.26,29.452-0.004,40.708c7.364,7.363,17.779,10.007,27.514,7.513l19.901,19.901
			c-5.224,10.914-3.548,24.733,5.867,34.148l4.095,4.095c-13.857,25.942-21.165,55.065-21.165,84.697
			c0,78.552,50.164,144.994,120.004,169.755v37.612h-10c-27.571,0-50.002,22.431-50.002,50.002c0,5.522,4.477,10,10,10h200.007
			c5.523,0,10-4.478,10-10c0-27.622-22.375-50.002-50.002-50.002h-10v-27.001c12.299,0,50.539,0,66.572,0
			c12.935,0,25.82-5.467,35.353-15l23.426-23.426c9.45-9.437,14.654-21.998,14.654-35.367v-40.001
			C458.333,307.155,455.893,303.507,452.152,301.961z M401.189,259.634l14.138,14.138l-97.151,97.15
			c-0.568-7.63-2.873-14.999-6.718-21.558L401.189,259.634z M238.324,374.635c0-16.672,13.594-30.001,30.001-30.001
			c16.529,0,30.001,13.419,30.001,30.001c0,24.803,0,52.765,0,77.363h-20.001v-37.361c0-5.523-4.477-10-10-10s-10,4.477-10,10
			v37.361h-20.001C238.324,435.256,238.324,389.902,238.324,374.635z M168.322,204.63c-16.543,0-30.001-13.458-30.001-30.001
			c0-16.525,13.501-30.001,30.001-30.001c16.543,0,30.001,13.458,30.001,30.001C198.323,191.014,185.03,204.63,168.322,204.63z
			 M330.685,245.73l-31.26,31.26l-38.788-12.929l57.119-57.119L330.685,245.73z M181.248,75.84c0.002-0.002,0.003-0.003,0.005-0.005
			c0.001-0.001,0.001-0.002,0.002-0.002c3.899-3.894,10.24-3.893,14.136,0.003l112.593,112.593l-65.86,65.86l-41.509-41.501
			c11.039-9.362,17.709-23.262,17.709-38.159c0-27.571-22.431-50.002-50.002-50.002c-14.896,0-28.792,6.668-38.154,17.705
			l-0.636-0.636c-3.906-3.906-3.908-10.226-0.002-14.135c0.001-0.001,0.002-0.001,0.002-0.002c0.002-0.002,0.003-0.003,0.005-0.005
			L181.248,75.84z M88.67,80.133c-3.458,3.454-9.011,3.411-12.42,0.002c-3.426-3.427-3.448-8.976,0-12.418l45.161-45.161
			c3.408-3.409,8.981-3.432,12.412-0.006c3.397,3.402,3.489,8.943,0.005,12.423L88.67,80.133z M106.603,90.486l37.578-37.578
			l15.857,15.857l-37.578,37.578L106.603,90.486z M218.323,374.635v18.391c-60.346-24.245-100.003-82.269-100.003-148.395
			c0-15.421,2.239-30.679,6.549-45.31c7.317,12.826,20.141,22.115,35.234,24.622c-1.184,6.816-1.783,13.736-1.783,20.688
			c0.001,46.523,26.522,87.132,65.619,106.992C220.277,358.666,218.323,366.528,218.323,374.635z M328.328,471.999
			c13.287,0,24.269,8.584,28.298,20.001h-176.59c4.127-11.641,15.25-20.001,28.288-20.001H328.328z M438.331,351.204
			c0,8.022-3.121,15.557-8.792,21.22l-23.431,23.431c-5.809,5.81-13.54,9.141-21.21,9.141h-15.926l69.358-69.592V351.204z"/>
	</g>
</g>
<g>
</g>
<g>
</g>
<g>
</g>
<g>
</g>
<g>
</g>
<g>
</g>
<g>
</g>
<g>
</g>
<g>
</g>
<g>
</g>
<g>
</g>
<g>
</g>
<g>
</g>
<g>
</g>
<g>
</g>
</svg>
