<?xml version="1.0" encoding="iso-8859-1"?>
<!-- Generator: Adobe Illustrator 19.0.0, SVG Export Plug-In . SVG Version: 6.00 Build 0)  -->
<svg version="1.1" id="Capa_1" xmlns="http://www.w3.org/2000/svg" xmlns:xlink="http://www.w3.org/1999/xlink" x="0px" y="0px"
	 viewBox="0 0 512 512" style="enable-background:new 0 0 512 512;" xml:space="preserve">
<g>
	<g>
		<g>
			<path d="M464,95.472H146.16l58.128-69.744L179.712,5.216l-75.216,90.256h-0.992L28.288,5.216L3.712,25.728L61.84,95.472H48
				c-26.51,0-48,21.49-48,48v224c0,26.51,21.49,48,48,48h57.376L36.688,484.16l22.624,22.624l91.312-91.312h210.752l91.312,91.312
				l22.624-22.624l-68.688-68.688H464c26.51,0,48-21.49,48-48v-224C512,116.962,490.51,95.472,464,95.472z M320,383.472H48
				c-8.837,0-16-7.163-16-16v-224c0-8.837,7.163-16,16-16h272V383.472z M480,367.472c0,8.837-7.163,16-16,16H352v-256h112
				c8.837,0,16,7.163,16,16V367.472z"/>
			<rect x="384" y="159.472" width="64" height="32"/>
			<rect x="384" y="223.472" width="64" height="32"/>
			<rect x="384" y="287.472" width="64" height="32"/>
			<rect x="64" y="159.472" width="32" height="32"/>
			<rect x="64" y="223.472" width="32" height="32"/>
			<rect x="128" y="159.472" width="32" height="32"/>
		</g>
	</g>
</g>
<g>
</g>
<g>
</g>
<g>
</g>
<g>
</g>
<g>
</g>
<g>
</g>
<g>
</g>
<g>
</g>
<g>
</g>
<g>
</g>
<g>
</g>
<g>
</g>
<g>
</g>
<g>
</g>
<g>
</g>
</svg>
