<?xml version="1.0" encoding="iso-8859-1"?>
<!-- Generator: Adobe Illustrator 19.0.0, SVG Export Plug-In . SVG Version: 6.00 Build 0)  -->
<svg version="1.1" id="Capa_1" xmlns="http://www.w3.org/2000/svg" xmlns:xlink="http://www.w3.org/1999/xlink" x="0px" y="0px"
	 viewBox="0 0 379.731 379.731" style="enable-background:new 0 0 379.731 379.731;" xml:space="preserve">
<g>
	<g>
		<path d="M356.793,315.346v-10.4c-0.085-14.001-9.625-26.173-23.2-29.6c1.009-15.167-8.267-29.131-22.64-34.08v-2.24h35.28
			c8.837,0,16-7.163,16-16V20.706c0-8.837-7.163-16-16-16h-313.6c-8.837,0-16,7.163-16,16v202.56c0,8.837,7.163,16,16,16h35.28v1.92
			c-4.844,1.608-9.232,4.351-12.8,8c-6.418,7.172-9.827,16.541-9.52,26.16c-13.416,3.58-22.763,15.714-22.8,29.6v10.08
			c-4.852,1.591-9.244,4.336-12.8,8c-6.977,7.596-10.559,17.706-9.92,28v16c0,4.418,3.582,8,8,8s8-3.582,8-8v-16
			c-0.783-6.121,0.949-12.298,4.8-17.12c4.518-3.609,10.232-5.381,16-4.96h32c14.72,0,21.6,6.88,21.6,21.6v16c0,4.418,3.582,8,8,8
			s8-3.582,8-8v-16c-0.495-6.039,1.433-12.026,5.36-16.64c4.518-3.609,10.232-5.381,16-4.96h32c14.72,0,21.6,6.88,21.6,21.6v16
			c0,4.418,3.582,8,8,8s8-3.582,8-8v-16c-0.495-6.039,1.433-12.026,5.36-16.64c4.522-3.602,10.233-5.373,16-4.96h32
			c14.72,0,21.6,6.88,21.6,21.6v16c0,4.418,3.582,8,8,8s8-3.582,8-8v-16c-1.902-10.027,4.685-19.698,14.713-21.6
			c2.276-0.432,4.612-0.432,6.887,0h32c14.72,0,21.6,6.88,21.6,21.6v16c0,4.418,3.582,8,8,8s8-3.582,8-8v-16
			C380.996,334.964,371.586,320.436,356.793,315.346z M32.873,223.266V20.946h313.68v202.32h-36.4
			c-4.197-16.393-20.889-26.28-37.282-22.083c-13.702,3.508-23.223,15.94-23.038,30.083v10.08c-4.844,1.608-9.232,4.351-12.8,8
			c-0.742,0.841-1.436,1.722-2.08,2.64c-3.83-4.604-8.874-8.041-14.56-9.92v-10.4c0-16.988-13.772-30.76-30.76-30.76
			s-30.76,13.772-30.76,30.76v10.08c-4.844,1.608-9.232,4.351-12.8,8c-0.742,0.84-1.437,1.722-2.08,2.64
			c-3.83-4.604-8.874-8.041-14.56-9.92v-10.4c0.221-16.921-13.316-30.817-30.237-31.038c-14.143-0.185-26.575,9.335-30.083,23.038
			L32.873,223.266z M295.353,231.266h-0.08v8h-29.44v-8c0-8.152,6.608-14.76,14.76-14.76S295.353,223.114,295.353,231.266z
			 M204.393,231.266h-0.08v8h-29.44v-8c0-8.152,6.608-14.76,14.76-14.76C197.785,216.506,204.393,223.114,204.393,231.266z
			 M113.433,231.266h-0.08v8h-29.44v-8c0-8.152,6.608-14.76,14.76-14.76S113.433,223.114,113.433,231.266z M67.913,313.026h-29.52
			v-8c0-8.152,6.608-14.76,14.76-14.76s14.76,6.608,14.76,14.76V313.026z M113.353,304.945l0.08,0.08v10.08
			c-4.852,1.591-9.244,4.336-12.8,8c-0.742,0.84-1.437,1.722-2.08,2.64c-3.812-4.623-8.862-8.065-14.56-9.92v-10.4
			c0.194-13.92-8.998-26.231-22.4-30c-0.319-5.648,1.542-11.204,5.2-15.52c4.511-3.624,10.231-5.397,16-4.96h32
			c14.32,0,21.12,6.56,21.52,20.48C122.862,278.937,113.445,291.044,113.353,304.945z M129.353,313.026v-8
			c0-8.152,6.608-14.76,14.76-14.76s14.76,6.608,14.76,14.76l0.08,8H129.353z M204.313,304.945l0.16,0.08v10.08
			c-4.852,1.591-9.244,4.336-12.8,8c-0.743,0.84-1.437,1.721-2.08,2.64c-3.83-4.604-8.874-8.041-14.56-9.92v-10.4
			c-0.053-13.81-9.316-25.888-22.64-29.52c-0.446-5.811,1.423-11.562,5.2-16c4.511-3.624,10.231-5.397,16-4.96h32
			c14.32,0,21.12,6.56,21.52,20.48C213.725,278.998,204.386,291.09,204.313,304.945z M220.313,313.026v-8
			c0-8.152,6.608-14.76,14.76-14.76c8.152,0,14.76,6.608,14.76,14.76l0.16,8H220.313z M295.273,304.945l0.24,0.08v10.08
			c-4.852,1.591-9.244,4.336-12.8,8c-0.742,0.84-1.437,1.722-2.08,2.64c-3.812-4.623-8.862-8.065-14.56-9.92v-10.4
			c-0.053-13.81-9.316-25.888-22.64-29.52c-0.319-5.648,1.542-11.204,5.2-15.52c4.518-3.609,10.232-5.381,16-4.96h32
			c14.32,0,21.12,6.56,21.52,20.48C304.903,279.399,295.569,291.246,295.273,304.945z M311.273,313.026v-8
			c0-8.152,6.608-14.76,14.76-14.76s14.76,6.608,14.76,14.76l0.24,8H311.273z"/>
	</g>
</g>
<g>
</g>
<g>
</g>
<g>
</g>
<g>
</g>
<g>
</g>
<g>
</g>
<g>
</g>
<g>
</g>
<g>
</g>
<g>
</g>
<g>
</g>
<g>
</g>
<g>
</g>
<g>
</g>
<g>
</g>
</svg>
