<?xml version="1.0" encoding="iso-8859-1"?>
<!-- Generator: Adobe Illustrator 19.0.0, SVG Export Plug-In . SVG Version: 6.00 Build 0)  -->
<svg version="1.1" id="Capa_1" xmlns="http://www.w3.org/2000/svg" xmlns:xlink="http://www.w3.org/1999/xlink" x="0px" y="0px"
	 viewBox="0 0 512 512" style="enable-background:new 0 0 512 512;" xml:space="preserve">
<g>
	<g>
		<path d="M378.182,211.306H133.818C60.033,211.306,0,271.339,0,345.124s60.033,133.818,133.818,133.818
			c37.755,0,73.32-15.714,98.735-43.372h46.895c25.415,27.658,60.975,43.372,98.735,43.372c73.785,0,133.818-60.033,133.818-133.818
			S451.967,211.306,378.182,211.306z M378.177,447.212c-30.778,0-59.658-13.694-79.228-37.57c-3.015-3.676-7.521-5.808-12.271-5.808
			h-61.355c-4.75,0-9.256,2.132-12.271,5.802c-19.576,23.876-48.455,37.57-79.233,37.57c-56.288,0-102.083-45.794-102.083-102.083
			S77.53,243.041,133.818,243.047h244.358c56.288,0,102.083,45.794,102.083,102.083
			C480.259,401.417,434.465,447.212,378.177,447.212z"/>
	</g>
</g>
<g>
	<g>
		<path d="M127.471,279.008c-8.764,0-15.868,7.103-15.868,15.868v98.38c0,8.764,7.103,15.868,15.868,15.868
			s15.868-7.103,15.868-15.868v-98.38C143.339,286.112,136.235,279.008,127.471,279.008z"/>
	</g>
</g>
<g>
	<g>
		<path d="M176.661,328.198h-98.38c-8.764,0-15.868,7.103-15.868,15.868s7.104,15.868,15.868,15.868h98.38
			c8.764,0,15.868-7.104,15.868-15.868S185.425,328.198,176.661,328.198z"/>
	</g>
</g>
<g>
	<g>
		<path d="M377.653,257.328c-17.211,0-31.207,13.995-31.207,31.201c0,17.211,13.995,31.207,31.207,31.207
			c17.206,0,31.207-13.995,31.201-31.207C408.854,271.323,394.859,257.328,377.653,257.328z M377.119,288.529
			c0-0.291,0.238-0.529,0.534-0.529c0.291,0,0.529,0.238,0.524,0.529C378.171,289.121,377.113,289.111,377.119,288.529z"/>
	</g>
</g>
<g>
	<g>
		<path d="M377.653,363.113c-17.211,0-31.207,13.995-31.207,31.201c0,17.211,13.995,31.207,31.207,31.207
			c17.206,0,31.207-13.995,31.201-31.207C408.854,377.108,394.859,363.113,377.653,363.113z M377.119,394.314
			c0-0.291,0.238-0.529,0.534-0.529c0.291,0,0.529,0.238,0.524,0.529C378.171,394.906,377.113,394.896,377.119,394.314z"/>
	</g>
</g>
<g>
	<g>
		<path d="M430.545,310.22c-17.211,0-31.207,13.995-31.207,31.201c0,17.211,13.995,31.207,31.207,31.207
			c17.206,0,31.207-13.995,31.201-31.207C461.747,324.216,447.751,310.22,430.545,310.22z M430.011,341.421
			c0-0.291,0.238-0.529,0.534-0.529c0.291,0,0.529,0.238,0.524,0.529C431.064,342.009,430.006,341.998,430.011,341.421z"/>
	</g>
</g>
<g>
	<g>
		<path d="M324.76,310.22c-17.211,0-31.207,13.995-31.207,31.201c0,17.211,13.995,31.207,31.207,31.207
			c17.206,0,31.207-13.995,31.201-31.207C355.962,324.216,341.966,310.22,324.76,310.22z M324.226,341.421
			c0-0.291,0.238-0.529,0.534-0.529c0.291,0,0.529,0.238,0.524,0.529C325.284,342.009,324.226,341.998,324.226,341.421z"/>
	</g>
</g>
<g>
	<g>
		<path d="M307.306,154.182H204.694c-23.728,0-42.314,18.586-42.314,42.314v29.62h31.736v-29.62c0-6.03,4.549-10.578,10.578-10.578
			h102.612c6.035,0,10.578,4.549,10.578,10.578v29.62h31.736v-29.62C349.62,172.768,331.033,154.182,307.306,154.182z"/>
	</g>
</g>
<g>
	<g>
		<path d="M277.321,96.555c-5.051-4.739-5.458-5.543-5.458-7.96c0-2.613,0.682-3.623,5.638-8.331
			c6.183-5.871,15.524-14.741,15.524-31.339c0-8.764-7.103-15.868-15.868-15.868c-8.764,0-15.868,7.103-15.868,15.868
			c0,2.613-0.682,3.623-5.638,8.331c-6.178,5.871-15.519,14.741-15.519,31.339c0,16.598,9.325,25.336,15.492,31.117
			c5.035,4.718,5.67,5.675,5.67,8.553s-0.635,3.835-5.67,8.553c-6.167,5.781-15.492,14.519-15.492,31.117
			c0,8.764,7.103,15.868,15.868,15.868s15.862-7.103,15.862-15.868c0-2.412,0.407-3.221,5.458-7.96
			c6.257-5.861,15.704-14.715,15.704-31.709S283.578,102.416,277.321,96.555z"/>
	</g>
</g>
<g>
</g>
<g>
</g>
<g>
</g>
<g>
</g>
<g>
</g>
<g>
</g>
<g>
</g>
<g>
</g>
<g>
</g>
<g>
</g>
<g>
</g>
<g>
</g>
<g>
</g>
<g>
</g>
<g>
</g>
</svg>
